<svg width="32" height="32" viewBox="0 0 32 32" fill="none" xmlns="http://www.w3.org/2000/svg">
  <!-- Shield Background -->
  <path d="M16 2L6 7V15C6 21.5 10.5 27.5 16 30C21.5 27.5 26 21.5 26 15V7L16 2Z" fill="#F8FAFC" stroke="#0F172A" stroke-width="1.5"/>
  
  <!-- The Sun (Rising over the waves) -->
  <circle cx="16" cy="11" r="5" fill="#F59E0B"/>
  <path d="M16 4V6M21 6L19.5 7.5M23 11H21M21 16L19.5 14.5M16 18V16M11 16L12.5 14.5M9 11H11M11 6L12.5 7.5" stroke="#F59E0B" stroke-width="1.2" stroke-linecap="round"/>
  
  <!-- Blue Waves (Representing the logo stripes) -->
  <path d="M9 18C11 16.5 13 19.5 16 18C19 16.5 21 19.5 23 18" stroke="#2563EB" stroke-width="2" stroke-linecap="round"/>
  <path d="M9 22C11 20.5 13 23.5 16 22C19 20.5 21 23.5 23 22" stroke="#2563EB" stroke-width="2" stroke-linecap="round"/>
  <path d="M10 26C12 24.5 14 27.5 16 26C18 24.5 20 27.5 22 26" stroke="#2563EB" stroke-width="1.5" stroke-linecap="round"/>
</svg>
